<svg xmlns="http://www.w3.org/2000/svg" enable-background="new 0 0 512 512" viewBox="0 0 512 512" id="food-delivery"><path fill="#0d0d0d" d="M5 512c-1 0-1.9-.3-2.7-.8C.8 510.3 0 508.7 0 507V390c0-2 1.2-3.8 3-4.6l69.7-29.9 46.9-26.3c23.7-13.3 50.5-20.3 77.7-20.4l122.2-14.8c7.9-.9 15.7 1.5 21.7 6.8 5.9 5.2 9.3 12.8 9.3 20.7 0 12-7.7 22.6-19.1 26.3l-102.4 33.4h115.2l79.7-37.1 1.6-3.2c15.7-30.8 47-50 81.6-50 1.6 0 3.1.8 4 2 .9 1.3 1.2 2.9.7 4.5L485.3 381c-.3.9-.8 1.6-1.4 2.2l-69.1 61.4c-.6.5-1.2.9-2 1.1l-127.4 35.8c-.4.1-.9.2-1.4.2H76L7 511.6C6.3 511.9 5.7 512 5 512zM10 393.3v106.1l63-27.2c.6-.3 1.3-.4 2-.4h208.3l125.6-35.3 67.2-59.7 23.9-75.4c-28 2.3-52.8 18.8-65.7 44.2l-2.4 4.8c-.5 1-1.3 1.8-2.3 2.3l-82.2 38.3c-.7.3-1.4.5-2.1.5H197.5c-2.5 0-4.6-1.8-4.9-4.2-.4-2.4 1-4.8 3.4-5.5l132.3-43.2c7.3-2.4 12.2-9.1 12.2-16.8 0-5-2.2-9.9-5.9-13.2-3.8-3.3-8.8-4.9-13.8-4.3l-122.5 14.8c-.2 0-.4 0-.6 0-25.5 0-50.8 6.6-73.1 19.1l-47.1 26.4c-.2.1-.3.2-.5.2L10 393.3zM364 54H128c-2.8 0-5-2.2-5-5V5c0-2.8 2.2-5 5-5h256c2.8 0 5 2.2 5 5v44h-10V10H133v34h231V54z"></path><rect width="10" height="312.2" x="98.8" y="47.1" fill="#0d0d0d" transform="rotate(8.934 103.738 203.19)"></rect><path fill="#0d0d0d" d="M421.8,321.9L384,81.2l-32.9,209l-9.9-1.6l37.8-240.5c0.4-2.4,2.5-4.2,4.9-4.2
					s4.6,1.8,4.9,4.2l42.8,272.1L421.8,321.9z"></path><rect width="10" height="48.2" x="329.7" y="338.4" fill="#0d0d0d" transform="rotate(8.934 334.661 362.41)"></rect><path fill="#0d0d0d" d="M335.3,388.8l-8.6-5.1l53-90.3c0.9-1.5,2.5-2.5,4.3-2.5s3.4,0.9,4.3,2.5l33.3,56.7
					l-8.6,5.1l-29-49.4L335.3,388.8z"></path><rect width="10" height="247" x="379" y="49" fill="#0d0d0d"></rect><path fill="#0d0d0d" d="M199 287c-5.6 0-10.8-2.2-14.7-6.3-3.9-4-5.9-9.3-5.7-14.9l4.2-107.4c-10.8-2.4-18.8-12-18.8-23.4V94c0-13.2 10.8-24 24-24h22c13.2 0 24 10.8 24 24v41c0 11.5-8.1 21.1-18.8 23.4l4.2 107.4c.2 5.6-1.8 10.9-5.7 14.9C209.8 284.8 204.6 287 199 287zM188 80c-7.7 0-14 6.3-14 14v41c0 7.7 6.3 14 14 14 1.4 0 2.7.6 3.6 1.5.9 1 1.4 2.3 1.4 3.7l-4.4 112c-.1 2.8.9 5.5 2.9 7.6 2 2.1 4.6 3.2 7.5 3.2s5.5-1.1 7.5-3.2c2-2.1 3-4.8 2.9-7.6l-4.4-112c-.1-1.4.4-2.7 1.4-3.7.9-1 2.2-1.5 3.6-1.5 7.7 0 14-6.3 14-14V94c0-7.7-6.3-14-14-14H188zM293 287c-5.6 0-10.8-2.2-14.7-6.3-3.9-4-5.9-9.3-5.7-14.9l4.2-107.4c-10.8-2.4-18.8-12-18.8-23.4v-30c0-19.3 15.7-35 35-35s35 15.7 35 35v30c0 11.5-8.1 21.1-18.8 23.4l4.2 107.4c.2 5.6-1.8 10.9-5.7 14.9C303.8 284.8 298.6 287 293 287zM293 80c-13.8 0-25 11.2-25 25v30c0 7.7 6.3 14 14 14 1.4 0 2.7.6 3.6 1.5.9 1 1.4 2.3 1.4 3.7l-4.4 112c-.1 2.8.9 5.5 2.9 7.6 2 2.1 4.6 3.2 7.5 3.2s5.5-1.1 7.5-3.2c2-2.1 3-4.8 2.9-7.6l-4.4-112c-.1-1.4.4-2.7 1.4-3.7.9-1 2.2-1.5 3.6-1.5 7.7 0 14-6.3 14-14v-30C318 91.2 306.8 80 293 80z"></path><rect width="10" height="49" x="184" y="75" fill="#0d0d0d"></rect><rect width="10" height="49" x="204" y="75" fill="#0d0d0d"></rect></svg>